<?xml version="1.0" standalone="no"?>
<!DOCTYPE svg PUBLIC "-//W3C//DTD SVG 20010904//EN"
 "http://www.w3.org/TR/2001/REC-SVG-20010904/DTD/svg10.dtd">
<svg version="1.0" xmlns="http://www.w3.org/2000/svg"
 width="598.000000pt" height="598.000000pt" viewBox="0 0 598.000000 598.000000"
 preserveAspectRatio="xMidYMid meet">
<metadata>
Created by potrace 1.14, written by Peter Selinger 2001-2017
</metadata>
<g transform="translate(0.000000,598.000000) scale(0.100000,-0.100000)"
fill="#000000" stroke="none">
<path d="M1925 4204 c-158 -27 -334 -102 -465 -197 -130 -95 -288 -283 -364
-434 -44 -89 -29 -81 36 18 93 141 300 339 443 425 257 154 572 192 855 103
93 -29 234 -101 315 -161 150 -112 320 -319 386 -472 13 -31 27 -56 31 -56 12
0 -4 65 -34 137 -115 279 -391 517 -703 608 -155 45 -344 56 -500 29z"/>
<path d="M2019 4135 c-2 -1 -26 -6 -54 -9 -196 -25 -421 -143 -585 -306 -58
-58 -141 -161 -151 -189 -15 -39 -3 -91 21 -91 11 0 21 6 21 13 1 6 2 17 4 22
1 6 3 18 3 28 1 10 6 16 10 13 9 -6 7 -108 -3 -141 -8 -26 22 -55 61 -59 49
-4 63 9 61 57 -1 28 7 59 22 88 37 72 48 80 105 78 28 -1 56 0 61 1 16 5 63
-11 75 -24 5 -7 11 -25 12 -40 5 -62 52 -46 50 16 -1 49 13 66 83 97 36 17 65
34 65 40 0 15 71 61 94 61 11 0 28 8 38 17 16 14 25 15 69 5 58 -14 126 -16
133 -4 9 15 -10 32 -31 28 -23 -5 -49 17 -39 32 3 5 24 10 46 10 22 0 43 3 48
6 4 2 14 1 21 -4 11 -6 9 -10 -8 -19 -12 -7 -19 -17 -15 -23 7 -12 83 -47 102
-48 19 0 14 28 -8 50 -11 11 -20 31 -20 45 0 21 -43 75 -61 75 -12 0 -49 79
-43 94 11 29 50 30 86 3 51 -37 65 -39 94 -12 15 14 39 25 53 25 40 1 6 17
-86 41 -68 17 -322 36 -334 24z"/>
<path d="M2704 3876 c-3 -9 -1 -23 5 -30 8 -10 9 -16 1 -21 -15 -9 -12 -41 5
-55 12 -10 18 -10 30 0 15 12 35 6 35 -12 0 -5 9 -23 21 -39 l20 -29 -20 -26
c-11 -14 -18 -34 -15 -47 2 -12 7 -38 10 -57 8 -53 11 -59 41 -72 31 -12 63
-11 77 2 5 5 10 30 11 55 2 31 9 51 21 60 25 19 44 19 44 -1 0 -8 6 -21 13
-27 20 -20 67 -48 67 -41 0 4 -25 44 -55 90 -97 146 -205 250 -269 261 -27 4
-37 2 -42 -11z"/>
<path d="M3936 3407 c-9 -7 -20 -31 -23 -54 -5 -35 -2 -43 17 -53 26 -14 89
-7 101 11 4 7 10 29 14 48 5 27 3 38 -11 48 -23 17 -75 17 -98 0z"/>
<path d="M900 3288 c-7 -40 -14 -80 -15 -88 -2 -8 -20 -100 -40 -205 -20 -104
-39 -198 -41 -207 -5 -16 2 -18 59 -18 l64 0 7 48 c9 59 14 84 26 147 5 28 12
66 15 85 3 19 10 60 17 90 6 30 11 61 11 68 1 37 20 -24 68 -220 l54 -218 82
0 c93 0 83 -11 108 120 9 47 18 94 21 105 2 11 6 31 9 45 3 14 8 41 11 60 3
19 16 86 29 148 l22 112 -63 0 c-34 0 -65 -4 -68 -9 -3 -4 -8 -23 -10 -42 -5
-37 -15 -100 -22 -139 -2 -14 -11 -71 -20 -128 -9 -56 -19 -101 -21 -98 -3 2
-8 19 -13 38 -4 18 -22 94 -39 168 -18 74 -37 152 -42 173 l-10 37 -93 0 -93
0 -13 -72z"/>
<path d="M1760 3231 c-96 -29 -155 -98 -186 -214 -17 -66 -12 -166 11 -201 52
-79 182 -74 239 10 l26 39 0 -31 c0 -42 19 -64 60 -66 70 -3 77 0 84 37 8 40
5 51 -10 47 -6 -1 -17 4 -23 12 -10 12 -8 37 8 123 11 59 25 122 30 140 8 27
6 34 -19 58 -46 44 -152 66 -220 46z m94 -95 c34 -14 34 -14 25 -61 -22 -116
-103 -234 -152 -219 -33 9 -37 16 -42 65 -9 88 37 188 99 215 38 16 31 16 70
0z"/>
<path d="M4434 3224 c-16 -9 -37 -23 -47 -32 -18 -16 -18 -15 -12 11 l7 27
-60 0 c-68 0 -65 4 -81 -95 -13 -74 -20 -115 -26 -135 -2 -8 -7 -31 -10 -50
-8 -52 -26 -142 -31 -162 -5 -16 2 -18 55 -18 55 0 61 2 66 23 3 12 16 80 30
152 14 71 32 140 40 152 19 28 65 53 91 48 10 -2 22 -4 26 -4 4 -1 12 -10 18
-21 8 -15 4 -57 -20 -176 -16 -86 -30 -160 -30 -165 0 -5 26 -9 59 -9 l58 0
22 118 c12 64 25 131 28 147 4 17 7 56 7 88 0 49 -3 61 -27 84 -22 22 -37 28
-81 29 -32 2 -65 -4 -82 -12z"/>
<path d="M2224 3213 c2 -10 7 -57 11 -105 3 -49 8 -97 10 -108 2 -11 7 -57 11
-103 4 -45 8 -91 9 -102 1 -18 10 -20 77 -23 l76 -3 70 123 c38 68 83 148 100
178 16 30 42 75 56 100 14 25 26 48 26 53 0 4 -28 7 -62 7 l-63 0 -87 -172
c-49 -95 -88 -170 -89 -167 -3 13 -7 67 -14 177 -4 67 -8 130 -9 140 -2 14
-15 18 -64 20 -54 3 -61 1 -58 -15z"/>
<path d="M3253 3223 c23 -37 97 -209 94 -217 -4 -9 -118 -152 -175 -218 -14
-17 -11 -18 54 -18 l69 0 59 75 c32 41 62 75 65 75 4 0 20 -34 36 -75 l30 -75
67 0 c79 0 79 -11 3 139 l-46 92 91 110 c49 60 90 111 90 114 0 3 -29 5 -65 5
l-65 0 -56 -75 c-31 -41 -58 -75 -59 -75 -1 0 -15 34 -31 75 l-29 75 -68 0
c-37 0 -66 -3 -64 -7z"/>
<path d="M3900 3228 c0 -2 -9 -50 -20 -108 -12 -58 -23 -121 -26 -140 -3 -19
-7 -37 -9 -40 -2 -3 -6 -26 -10 -50 -3 -25 -8 -53 -11 -62 -17 -58 -17 -58 46
-58 47 0 60 3 64 18 3 9 21 103 41 207 19 105 38 200 40 213 5 21 2 22 -55 22
-33 0 -60 -1 -60 -2z"/>
<path d="M2848 2913 c-33 -9 -55 -116 -27 -134 16 -10 64 -12 96 -3 15 4 24
18 32 49 14 57 14 61 -5 79 -14 15 -58 19 -96 9z"/>
<path d="M1643 2664 c-4 -10 10 -31 40 -60 26 -24 50 -56 53 -69 6 -23 -2
-142 -13 -190 -2 -11 -6 -67 -8 -125 -3 -84 0 -117 16 -167 18 -57 64 -123 87
-123 6 0 9 27 8 65 -1 36 2 65 6 65 4 0 10 11 14 25 4 18 17 28 46 37 22 6 45
19 51 28 7 9 29 23 50 31 36 13 75 47 129 112 19 23 34 30 73 34 60 6 104 43
141 116 15 30 43 60 73 82 63 46 98 124 66 147 -5 5 -194 8 -418 8 -359 -1
-409 -3 -414 -16z"/>
<path d="M2503 2547 c4 -12 1 -17 -10 -17 -13 0 -13 -3 -3 -15 12 -14 10 -42
-4 -76 -6 -15 1 -17 63 -15 64 1 68 2 54 18 -11 13 -12 21 -3 37 6 12 7 21 3
21 -4 0 -1 5 7 10 13 8 11 11 -7 16 -13 4 -23 13 -23 20 0 8 -4 14 -10 14 -5
0 -10 -7 -10 -15 0 -19 -5 -19 -37 2 -26 17 -27 17 -20 0z m47 -37 c0 -5 -7
-10 -16 -10 -8 0 -12 5 -9 10 3 6 10 10 16 10 5 0 9 -4 9 -10z m40 -10 c0 -5
-2 -10 -4 -10 -3 0 -8 5 -11 10 -3 6 -1 10 4 10 6 0 11 -4 11 -10z m-60 -40
c0 -11 -4 -20 -9 -20 -6 0 -9 9 -8 20 1 11 5 20 9 20 4 0 8 -9 8 -20z m38 3
c-2 -9 -8 -18 -15 -20 -7 -3 -9 3 -6 16 6 25 26 28 21 4z"/>
<path d="M2758 2555 c-4 -4 11 -25 32 -45 22 -21 40 -44 40 -50 0 -6 4 -9 10
-5 11 7 -8 55 -22 55 -5 0 -19 12 -31 26 -12 14 -25 22 -29 19z"/>
<path d="M3000 2558 c-6 -18 -8 -30 -9 -68 -1 -32 -5 -40 -20 -40 -11 0 -23
-4 -26 -10 -4 -6 20 -10 65 -10 45 0 69 4 65 10 -3 6 -19 10 -36 10 -24 0 -29
4 -29 25 0 20 5 25 25 25 14 0 25 5 25 10 0 6 -6 10 -12 9 -28 -3 -37 2 -41
24 -2 12 -5 19 -7 15z"/>
<path d="M3182 2540 c-4 -11 -6 -38 -5 -62 2 -58 2 -58 14 -58 5 0 8 4 5 8 -2
4 4 19 15 32 17 23 19 23 19 6 0 -15 3 -17 12 -8 18 18 43 -5 26 -25 -10 -13
-9 -15 7 -12 17 4 20 13 20 69 l0 65 -53 1 c-44 2 -55 -2 -60 -16z m38 -10 c0
-5 -7 -7 -15 -4 -8 4 -15 8 -15 10 0 2 7 4 15 4 8 0 15 -4 15 -10z m40 0 c0
-5 -2 -10 -4 -10 -3 0 -8 5 -11 10 -3 6 -1 10 4 10 6 0 11 -4 11 -10z m17 -37
c-3 -10 -5 -4 -5 12 0 17 2 24 5 18 2 -7 2 -21 0 -30z m-32 7 c3 -5 1 -10 -4
-10 -6 0 -11 5 -11 10 0 6 2 10 4 10 3 0 8 -4 11 -10z"/>
<path d="M3659 2544 c-1 -46 -9 -77 -24 -100 -12 -19 -13 -24 -2 -24 8 0 20
11 27 25 10 18 16 22 21 13 4 -7 3 -18 -2 -24 -6 -8 -6 -14 -1 -18 6 -3 17 6
27 20 l17 26 14 -21 c25 -35 35 -23 14 16 -11 21 -20 52 -20 70 0 18 -4 33
-10 33 -5 0 -10 -18 -10 -39 0 -22 -4 -42 -9 -46 -10 -5 -25 27 -26 57 0 24
-15 35 -16 12z"/>
<path d="M3873 2545 c4 -9 7 -19 7 -21 0 -2 5 -4 10 -4 6 0 19 -9 29 -19 17
-17 18 -21 5 -32 -17 -14 -24 -9 -28 18 -3 19 -36 32 -36 14 0 -6 5 -11 10
-11 16 0 12 -32 -6 -45 -13 -9 -1 -12 61 -13 l77 -2 -19 27 c-19 28 -20 63 -2
63 5 0 9 4 9 10 0 5 -6 7 -13 4 -8 -3 -20 2 -27 11 -13 16 -31 21 -29 8 4 -22
-3 -24 -28 -8 -24 16 -26 16 -20 0z m77 -35 c0 -5 -7 -7 -15 -4 -8 4 -15 8
-15 10 0 2 7 4 15 4 8 0 15 -4 15 -10z m10 -60 c0 -5 -7 -7 -15 -4 -8 4 -15 8
-15 10 0 2 7 4 15 4 8 0 15 -4 15 -10z"/>
<path d="M4109 2556 c-1 -1 -2 -22 -4 -48 -2 -41 0 -48 16 -48 11 0 19 -4 19
-9 0 -4 -11 -6 -25 -3 -15 2 -25 0 -25 -7 0 -7 25 -11 70 -11 72 0 100 19 33
22 l-38 1 33 4 c25 3 32 8 28 20 -3 8 -6 30 -6 48 l0 33 -50 -1 c-27 0 -51 -1
-51 -1z m38 -22 c-3 -3 -12 -4 -19 -1 -8 3 -5 6 6 6 11 1 17 -2 13 -5z m40 0
c-3 -3 -12 -4 -19 -1 -8 3 -5 6 6 6 11 1 17 -2 13 -5z m-40 -30 c-3 -3 -12 -4
-19 -1 -8 3 -5 6 6 6 11 1 17 -2 13 -5z m43 -4 c0 -5 -2 -10 -4 -10 -3 0 -8 5
-11 10 -3 6 -1 10 4 10 6 0 11 -4 11 -10z"/>
<path d="M4324 2549 c-3 -5 3 -9 14 -9 10 0 19 -7 19 -15 0 -14 -10 -19 -29
-16 -5 0 -8 -3 -8 -9 0 -5 7 -10 15 -10 8 0 15 -6 15 -14 0 -7 -7 -19 -15 -26
-22 -18 -18 -33 5 -20 11 6 23 22 26 35 10 39 34 31 34 -10 0 -19 5 -35 10
-35 6 0 10 16 10 35 0 24 5 35 15 35 8 0 15 5 15 10 0 6 -7 10 -15 10 -8 0
-15 7 -15 15 0 8 8 15 17 15 9 0 13 3 9 8 -11 10 -115 11 -122 1z m76 -24 c0
-8 -6 -15 -13 -15 -8 0 -14 7 -14 15 0 8 6 15 14 15 7 0 13 -7 13 -15z"/>
<path d="M4570 2546 c0 -8 -6 -17 -12 -19 -10 -4 -10 -7 -1 -14 8 -5 9 -14 3
-23 -5 -9 -5 -20 2 -28 9 -10 8 -16 -2 -22 -8 -5 -12 -12 -8 -15 3 -4 16 0 27
7 14 8 24 9 29 3 4 -5 21 -10 38 -11 27 -1 31 2 30 25 -1 14 2 31 6 37 5 7 -1
22 -13 35 -15 17 -19 19 -15 7 3 -12 0 -18 -10 -18 -11 0 -12 4 -4 19 12 24
13 31 1 31 -5 0 -11 -9 -14 -20 -6 -23 -37 -17 -37 6 0 8 -4 14 -10 14 -5 0
-10 -6 -10 -14z m17 -68 c-3 -7 -5 -2 -5 12 0 14 2 19 5 13 2 -7 2 -19 0 -25z
m20 -10 c-3 -8 -6 -5 -6 6 -1 11 2 17 5 13 3 -3 4 -12 1 -19z m53 -8 c0 -5 -7
-10 -15 -10 -8 0 -15 5 -15 10 0 6 7 10 15 10 8 0 15 -4 15 -10z"/>
<path d="M1045 2529 c15 -49 99 -206 147 -276 283 -410 784 -580 1255 -427
226 73 428 216 540 381 19 28 33 57 31 63 -2 6 -30 -15 -64 -47 -89 -86 -125
-117 -190 -161 -268 -182 -629 -243 -939 -160 -328 88 -536 244 -718 539 -26
42 -47 81 -47 87 0 6 -5 14 -11 18 -8 4 -9 -1 -4 -17z"/>
<path d="M2750 2482 c0 -51 1 -52 29 -52 31 0 49 26 31 44 -7 7 -10 5 -10 -7
0 -9 -7 -17 -15 -17 -15 0 -16 4 -19 47 -2 46 -16 33 -16 -15z"/>
<path d="M2722 2493 c-18 -32 -16 -51 4 -31 9 8 14 24 12 34 -4 18 -5 17 -16
-3z"/>
<path d="M3460 2429 c0 -11 5 -17 10 -14 6 3 10 13 10 21 0 8 -4 14 -10 14 -5
0 -10 -9 -10 -21z"/>
</g>
</svg>
